<svg id="visual" viewBox="0 0 900 600" width="900" height="600" xmlns="http://www.w3.org/2000/svg" xmlns:xlink="http://www.w3.org/1999/xlink" version="1.1"><rect x="0" y="0" width="900" height="600" fill="#141414"></rect><defs><linearGradient id="grad1_0" x1="33.3%" y1="0%" x2="100%" y2="100%"><stop offset="20%" stop-color="#141414" stop-opacity="1"></stop><stop offset="80%" stop-color="#141414" stop-opacity="1"></stop></linearGradient></defs><defs><linearGradient id="grad2_0" x1="0%" y1="0%" x2="66.7%" y2="100%"><stop offset="20%" stop-color="#141414" stop-opacity="1"></stop><stop offset="80%" stop-color="#141414" stop-opacity="1"></stop></linearGradient></defs><g transform="translate(900, 0)"><path d="M0 378.6C-38.1 327.9 -76.2 277.2 -100.6 243C-125.1 208.8 -135.9 191.2 -182.4 182.4C-228.9 173.7 -311.1 173.8 -349.8 144.9C-388.4 116 -383.5 58 -378.6 0L0 0Z" fill="#7852d1"></path></g><g transform="translate(0, 600)"><path d="M0 -378.6C20.3 -299.6 40.6 -220.7 86.9 -209.7C133.1 -198.7 205.3 -255.7 255.3 -255.3C305.2 -254.8 332.9 -197 349.8 -144.9C366.6 -92.8 372.6 -46.4 378.6 0L0 0Z" fill="#7852d1"></path></g></svg>