<svg xmlns="http://www.w3.org/2000/svg" version="1.1" xmlns:xlink="http://www.w3.org/1999/xlink" xmlns:svgjs="http://svgjs.com/svgjs" width="1440" height="560" preserveAspectRatio="none" viewBox="0 0 1440 560"><g mask="url(&quot;#SvgjsMask1005&quot;)" fill="none"><rect width="1440" height="560" x="0" y="0" fill="rgba(35, 35, 35, 1)"></rect><path d="M47.79 -39.17L112.74 -1.67L112.74 73.33L47.79 110.83L-17.16 73.33L-17.16 -1.67zM112.74 73.33L177.7 110.83L177.7 185.83L112.74 223.33L47.79 185.83L47.79 110.83zM47.79 185.83L112.74 223.33L112.74 298.33L47.79 335.83L-17.16 298.33L-17.16 223.33zM112.74 298.33L177.7 335.83L177.7 410.83L112.74 448.33L47.79 410.83L47.79 335.83zM47.79 410.83L112.74 448.33L112.74 523.33L47.79 560.83L-17.16 523.33L-17.16 448.33zM112.74 523.33L177.7 560.83L177.7 635.83L112.74 673.33L47.79 635.83L47.79 560.83zM242.65 73.33L307.61 110.83L307.61 185.83L242.65 223.33L177.7 185.83L177.7 110.83zM242.65 523.33L307.61 560.83L307.61 635.83L242.65 673.33L177.7 635.83L177.7 560.83zM372.56 73.33L437.51 110.83L437.51 185.83L372.56 223.33L307.61 185.83L307.61 110.83zM372.56 298.33L437.51 335.83L437.51 410.83L372.56 448.33L307.61 410.83L307.61 335.83zM307.61 410.83L372.56 448.33L372.56 523.33L307.61 560.83L242.65 523.33L242.65 448.33zM437.51 185.83L502.47 223.33L502.47 298.33L437.51 335.83L372.56 298.33L372.56 223.33zM502.47 523.33L567.42 560.83L567.42 635.83L502.47 673.33L437.51 635.83L437.51 560.83zM567.42 410.83L632.37 448.33L632.37 523.33L567.42 560.83L502.47 523.33L502.47 448.33zM632.37 523.33L697.33 560.83L697.33 635.83L632.37 673.33L567.42 635.83L567.42 560.83zM762.28 73.33L827.24 110.83L827.24 185.83L762.28 223.33L697.33 185.83L697.33 110.83zM827.23 -39.17L892.19 -1.67L892.19 73.33L827.23 110.83L762.28 73.33L762.28 -1.67zM827.23 185.83L892.19 223.33L892.19 298.33L827.23 335.83L762.28 298.33L762.28 223.33zM892.19 523.33L957.14 560.83L957.14 635.83L892.19 673.33L827.23 635.83L827.23 560.83zM957.14 -39.17L1022.1 -1.67L1022.1 73.33L957.14 110.83L892.19 73.33L892.19 -1.67zM957.14 185.83L1022.1 223.33L1022.1 298.33L957.14 335.83L892.19 298.33L892.19 223.33zM1152 73.33L1216.96 110.83L1216.96 185.83L1152 223.33L1087.05 185.83L1087.05 110.83zM1087.05 185.83L1152 223.33L1152 298.33L1087.05 335.83L1022.1 298.33L1022.1 223.33zM1152 298.33L1216.96 335.83L1216.96 410.83L1152 448.33L1087.05 410.83L1087.05 335.83zM1216.96 -39.17L1281.91 -1.67L1281.91 73.33L1216.96 110.83L1152 73.33L1152 -1.67zM1411.82 298.33L1476.77 335.83L1476.77 410.83L1411.82 448.33L1346.87 410.83L1346.87 335.83zM1476.77 410.83L1541.73 448.33L1541.73 523.33L1476.77 560.83L1411.82 523.33L1411.82 448.33z" stroke="rgba(67, 67, 67, 1)" stroke-width="2"></path><path d="M40.29 -39.17 a7.5 7.5 0 1 0 15 0 a7.5 7.5 0 1 0 -15 0zM105.24 -1.67 a7.5 7.5 0 1 0 15 0 a7.5 7.5 0 1 0 -15 0zM105.24 73.33 a7.5 7.5 0 1 0 15 0 a7.5 7.5 0 1 0 -15 0zM40.29 110.83 a7.5 7.5 0 1 0 15 0 a7.5 7.5 0 1 0 -15 0zM-24.66 73.33 a7.5 7.5 0 1 0 15 0 a7.5 7.5 0 1 0 -15 0zM-24.66 -1.67 a7.5 7.5 0 1 0 15 0 a7.5 7.5 0 1 0 -15 0zM170.2 110.83 a7.5 7.5 0 1 0 15 0 a7.5 7.5 0 1 0 -15 0zM170.2 185.83 a7.5 7.5 0 1 0 15 0 a7.5 7.5 0 1 0 -15 0zM105.24 223.33 a7.5 7.5 0 1 0 15 0 a7.5 7.5 0 1 0 -15 0zM40.29 185.83 a7.5 7.5 0 1 0 15 0 a7.5 7.5 0 1 0 -15 0zM105.24 298.33 a7.5 7.5 0 1 0 15 0 a7.5 7.5 0 1 0 -15 0zM40.29 335.83 a7.5 7.5 0 1 0 15 0 a7.5 7.5 0 1 0 -15 0zM-24.66 298.33 a7.5 7.5 0 1 0 15 0 a7.5 7.5 0 1 0 -15 0zM-24.66 223.33 a7.5 7.5 0 1 0 15 0 a7.5 7.5 0 1 0 -15 0zM170.2 335.83 a7.5 7.5 0 1 0 15 0 a7.5 7.5 0 1 0 -15 0zM170.2 410.83 a7.5 7.5 0 1 0 15 0 a7.5 7.5 0 1 0 -15 0zM105.24 448.33 a7.5 7.5 0 1 0 15 0 a7.5 7.5 0 1 0 -15 0zM40.29 410.83 a7.5 7.5 0 1 0 15 0 a7.5 7.5 0 1 0 -15 0zM105.24 523.33 a7.5 7.5 0 1 0 15 0 a7.5 7.5 0 1 0 -15 0zM40.29 560.83 a7.5 7.5 0 1 0 15 0 a7.5 7.5 0 1 0 -15 0zM-24.66 523.33 a7.5 7.5 0 1 0 15 0 a7.5 7.5 0 1 0 -15 0zM-24.66 448.33 a7.5 7.5 0 1 0 15 0 a7.5 7.5 0 1 0 -15 0zM170.2 560.83 a7.5 7.5 0 1 0 15 0 a7.5 7.5 0 1 0 -15 0zM170.2 635.83 a7.5 7.5 0 1 0 15 0 a7.5 7.5 0 1 0 -15 0zM105.24 673.33 a7.5 7.5 0 1 0 15 0 a7.5 7.5 0 1 0 -15 0zM40.29 635.83 a7.5 7.5 0 1 0 15 0 a7.5 7.5 0 1 0 -15 0zM235.15 73.33 a7.5 7.5 0 1 0 15 0 a7.5 7.5 0 1 0 -15 0zM300.11 110.83 a7.5 7.5 0 1 0 15 0 a7.5 7.5 0 1 0 -15 0zM300.11 185.83 a7.5 7.5 0 1 0 15 0 a7.5 7.5 0 1 0 -15 0zM235.15 223.33 a7.5 7.5 0 1 0 15 0 a7.5 7.5 0 1 0 -15 0zM235.15 523.33 a7.5 7.5 0 1 0 15 0 a7.5 7.5 0 1 0 -15 0zM300.11 560.83 a7.5 7.5 0 1 0 15 0 a7.5 7.5 0 1 0 -15 0zM300.11 635.83 a7.5 7.5 0 1 0 15 0 a7.5 7.5 0 1 0 -15 0zM235.15 673.33 a7.5 7.5 0 1 0 15 0 a7.5 7.5 0 1 0 -15 0zM365.06 73.33 a7.5 7.5 0 1 0 15 0 a7.5 7.5 0 1 0 -15 0zM430.01 110.83 a7.5 7.5 0 1 0 15 0 a7.5 7.5 0 1 0 -15 0zM430.01 185.83 a7.5 7.5 0 1 0 15 0 a7.5 7.5 0 1 0 -15 0zM365.06 223.33 a7.5 7.5 0 1 0 15 0 a7.5 7.5 0 1 0 -15 0zM365.06 298.33 a7.5 7.5 0 1 0 15 0 a7.5 7.5 0 1 0 -15 0zM430.01 335.83 a7.5 7.5 0 1 0 15 0 a7.5 7.5 0 1 0 -15 0zM430.01 410.83 a7.5 7.5 0 1 0 15 0 a7.5 7.5 0 1 0 -15 0zM365.06 448.33 a7.5 7.5 0 1 0 15 0 a7.5 7.5 0 1 0 -15 0zM300.11 410.83 a7.5 7.5 0 1 0 15 0 a7.5 7.5 0 1 0 -15 0zM300.11 335.83 a7.5 7.5 0 1 0 15 0 a7.5 7.5 0 1 0 -15 0zM365.06 523.33 a7.5 7.5 0 1 0 15 0 a7.5 7.5 0 1 0 -15 0zM235.15 448.33 a7.5 7.5 0 1 0 15 0 a7.5 7.5 0 1 0 -15 0zM494.97 223.33 a7.5 7.5 0 1 0 15 0 a7.5 7.5 0 1 0 -15 0zM494.97 298.33 a7.5 7.5 0 1 0 15 0 a7.5 7.5 0 1 0 -15 0zM494.97 523.33 a7.5 7.5 0 1 0 15 0 a7.5 7.5 0 1 0 -15 0zM559.92 560.83 a7.5 7.5 0 1 0 15 0 a7.5 7.5 0 1 0 -15 0zM559.92 635.83 a7.5 7.5 0 1 0 15 0 a7.5 7.5 0 1 0 -15 0zM494.97 673.33 a7.5 7.5 0 1 0 15 0 a7.5 7.5 0 1 0 -15 0zM430.01 635.83 a7.5 7.5 0 1 0 15 0 a7.5 7.5 0 1 0 -15 0zM430.01 560.83 a7.5 7.5 0 1 0 15 0 a7.5 7.5 0 1 0 -15 0zM559.92 410.83 a7.5 7.5 0 1 0 15 0 a7.5 7.5 0 1 0 -15 0zM624.87 448.33 a7.5 7.5 0 1 0 15 0 a7.5 7.5 0 1 0 -15 0zM624.87 523.33 a7.5 7.5 0 1 0 15 0 a7.5 7.5 0 1 0 -15 0zM494.97 448.33 a7.5 7.5 0 1 0 15 0 a7.5 7.5 0 1 0 -15 0zM689.83 560.83 a7.5 7.5 0 1 0 15 0 a7.5 7.5 0 1 0 -15 0zM689.83 635.83 a7.5 7.5 0 1 0 15 0 a7.5 7.5 0 1 0 -15 0zM624.87 673.33 a7.5 7.5 0 1 0 15 0 a7.5 7.5 0 1 0 -15 0zM754.78 73.33 a7.5 7.5 0 1 0 15 0 a7.5 7.5 0 1 0 -15 0zM819.74 110.83 a7.5 7.5 0 1 0 15 0 a7.5 7.5 0 1 0 -15 0zM819.74 185.83 a7.5 7.5 0 1 0 15 0 a7.5 7.5 0 1 0 -15 0zM754.78 223.33 a7.5 7.5 0 1 0 15 0 a7.5 7.5 0 1 0 -15 0zM689.83 185.83 a7.5 7.5 0 1 0 15 0 a7.5 7.5 0 1 0 -15 0zM689.83 110.83 a7.5 7.5 0 1 0 15 0 a7.5 7.5 0 1 0 -15 0zM819.73 -39.17 a7.5 7.5 0 1 0 15 0 a7.5 7.5 0 1 0 -15 0zM884.69 -1.67 a7.5 7.5 0 1 0 15 0 a7.5 7.5 0 1 0 -15 0zM884.69 73.33 a7.5 7.5 0 1 0 15 0 a7.5 7.5 0 1 0 -15 0zM819.73 110.83 a7.5 7.5 0 1 0 15 0 a7.5 7.5 0 1 0 -15 0zM754.78 -1.67 a7.5 7.5 0 1 0 15 0 a7.5 7.5 0 1 0 -15 0zM819.73 185.83 a7.5 7.5 0 1 0 15 0 a7.5 7.5 0 1 0 -15 0zM884.69 223.33 a7.5 7.5 0 1 0 15 0 a7.5 7.5 0 1 0 -15 0zM884.69 298.33 a7.5 7.5 0 1 0 15 0 a7.5 7.5 0 1 0 -15 0zM819.73 335.83 a7.5 7.5 0 1 0 15 0 a7.5 7.5 0 1 0 -15 0zM754.78 298.33 a7.5 7.5 0 1 0 15 0 a7.5 7.5 0 1 0 -15 0zM884.69 523.33 a7.5 7.5 0 1 0 15 0 a7.5 7.5 0 1 0 -15 0zM949.64 560.83 a7.5 7.5 0 1 0 15 0 a7.5 7.5 0 1 0 -15 0zM949.64 635.83 a7.5 7.5 0 1 0 15 0 a7.5 7.5 0 1 0 -15 0zM884.69 673.33 a7.5 7.5 0 1 0 15 0 a7.5 7.5 0 1 0 -15 0zM819.73 635.83 a7.5 7.5 0 1 0 15 0 a7.5 7.5 0 1 0 -15 0zM819.73 560.83 a7.5 7.5 0 1 0 15 0 a7.5 7.5 0 1 0 -15 0zM949.64 -39.17 a7.5 7.5 0 1 0 15 0 a7.5 7.5 0 1 0 -15 0zM1014.6 -1.67 a7.5 7.5 0 1 0 15 0 a7.5 7.5 0 1 0 -15 0zM1014.6 73.33 a7.5 7.5 0 1 0 15 0 a7.5 7.5 0 1 0 -15 0zM949.64 110.83 a7.5 7.5 0 1 0 15 0 a7.5 7.5 0 1 0 -15 0zM949.64 185.83 a7.5 7.5 0 1 0 15 0 a7.5 7.5 0 1 0 -15 0zM1014.6 223.33 a7.5 7.5 0 1 0 15 0 a7.5 7.5 0 1 0 -15 0zM1014.6 298.33 a7.5 7.5 0 1 0 15 0 a7.5 7.5 0 1 0 -15 0zM949.64 335.83 a7.5 7.5 0 1 0 15 0 a7.5 7.5 0 1 0 -15 0zM1144.5 73.33 a7.5 7.5 0 1 0 15 0 a7.5 7.5 0 1 0 -15 0zM1209.46 110.83 a7.5 7.5 0 1 0 15 0 a7.5 7.5 0 1 0 -15 0zM1209.46 185.83 a7.5 7.5 0 1 0 15 0 a7.5 7.5 0 1 0 -15 0zM1144.5 223.33 a7.5 7.5 0 1 0 15 0 a7.5 7.5 0 1 0 -15 0zM1079.55 185.83 a7.5 7.5 0 1 0 15 0 a7.5 7.5 0 1 0 -15 0zM1079.55 110.83 a7.5 7.5 0 1 0 15 0 a7.5 7.5 0 1 0 -15 0zM1144.5 298.33 a7.5 7.5 0 1 0 15 0 a7.5 7.5 0 1 0 -15 0zM1079.55 335.83 a7.5 7.5 0 1 0 15 0 a7.5 7.5 0 1 0 -15 0zM1209.46 335.83 a7.5 7.5 0 1 0 15 0 a7.5 7.5 0 1 0 -15 0zM1209.46 410.83 a7.5 7.5 0 1 0 15 0 a7.5 7.5 0 1 0 -15 0zM1144.5 448.33 a7.5 7.5 0 1 0 15 0 a7.5 7.5 0 1 0 -15 0zM1079.55 410.83 a7.5 7.5 0 1 0 15 0 a7.5 7.5 0 1 0 -15 0zM1209.46 -39.17 a7.5 7.5 0 1 0 15 0 a7.5 7.5 0 1 0 -15 0zM1274.41 -1.67 a7.5 7.5 0 1 0 15 0 a7.5 7.5 0 1 0 -15 0zM1274.41 73.33 a7.5 7.5 0 1 0 15 0 a7.5 7.5 0 1 0 -15 0zM1144.5 -1.67 a7.5 7.5 0 1 0 15 0 a7.5 7.5 0 1 0 -15 0zM1404.32 298.33 a7.5 7.5 0 1 0 15 0 a7.5 7.5 0 1 0 -15 0zM1469.27 335.83 a7.5 7.5 0 1 0 15 0 a7.5 7.5 0 1 0 -15 0zM1469.27 410.83 a7.5 7.5 0 1 0 15 0 a7.5 7.5 0 1 0 -15 0zM1404.32 448.33 a7.5 7.5 0 1 0 15 0 a7.5 7.5 0 1 0 -15 0zM1339.37 410.83 a7.5 7.5 0 1 0 15 0 a7.5 7.5 0 1 0 -15 0zM1339.37 335.83 a7.5 7.5 0 1 0 15 0 a7.5 7.5 0 1 0 -15 0zM1534.23 448.33 a7.5 7.5 0 1 0 15 0 a7.5 7.5 0 1 0 -15 0zM1534.23 523.33 a7.5 7.5 0 1 0 15 0 a7.5 7.5 0 1 0 -15 0zM1469.27 560.83 a7.5 7.5 0 1 0 15 0 a7.5 7.5 0 1 0 -15 0zM1404.32 523.33 a7.5 7.5 0 1 0 15 0 a7.5 7.5 0 1 0 -15 0z" fill="rgba(67, 67, 67, 1)"></path><path d="M131.19 325.78L174.49 350.78L174.49 400.78L131.19 425.78L87.89 400.78L87.89 350.78zM174.49 100.78L217.79 125.78L217.79 175.78L174.49 200.78L131.19 175.78L131.19 125.78zM217.79 175.78L261.09 200.78L261.09 250.78L217.79 275.78L174.49 250.78L174.49 200.78zM261.09 -49.22L304.4 -24.22L304.4 25.78L261.09 50.78L217.79 25.78L217.79 -24.22zM304.4 25.78L347.7 50.78L347.7 100.78L304.4 125.78L261.09 100.78L261.09 50.78zM391 25.78L434.31 50.78L434.31 100.78L391 125.78L347.7 100.78L347.7 50.78zM347.7 250.78L391 275.78L391 325.78L347.7 350.78L304.4 325.78L304.4 275.78zM434.31 250.78L477.61 275.78L477.61 325.78L434.31 350.78L391 325.78L391 275.78zM477.61 325.78L520.91 350.78L520.91 400.78L477.61 425.78L434.31 400.78L434.31 350.78zM520.91 -49.22L564.21 -24.22L564.21 25.78L520.91 50.78L477.61 25.78L477.61 -24.22zM564.21 25.78L607.51 50.78L607.51 100.78L564.21 125.78L520.91 100.78L520.91 50.78zM564.21 325.78L607.51 350.78L607.51 400.78L564.21 425.78L520.91 400.78L520.91 350.78zM520.91 400.78L564.21 425.78L564.21 475.78L520.91 500.78L477.61 475.78L477.61 425.78zM650.82 25.78L694.12 50.78L694.12 100.78L650.82 125.78L607.51 100.78L607.51 50.78zM650.82 325.78L694.12 350.78L694.12 400.78L650.82 425.78L607.51 400.78L607.51 350.78zM650.82 475.78L694.12 500.78L694.12 550.78L650.82 575.78L607.51 550.78L607.51 500.78zM694.12 -49.22L737.42 -24.22L737.42 25.78L694.12 50.78L650.82 25.78L650.82 -24.22zM737.42 475.78L780.73 500.78L780.73 550.78L737.42 575.78L694.12 550.78L694.12 500.78zM780.73 400.78L824.03 425.78L824.03 475.78L780.73 500.78L737.42 475.78L737.42 425.78zM910.63 475.78L953.94 500.78L953.94 550.78L910.63 575.78L867.33 550.78L867.33 500.78zM997.24 175.78L1040.54 200.78L1040.54 250.78L997.24 275.78L953.94 250.78L953.94 200.78zM953.94 250.78L997.24 275.78L997.24 325.78L953.94 350.78L910.63 325.78L910.63 275.78zM997.24 475.78L1040.54 500.78L1040.54 550.78L997.24 575.78L953.94 550.78L953.94 500.78zM1083.84 175.78L1127.14 200.78L1127.14 250.78L1083.84 275.78L1040.54 250.78L1040.54 200.78zM1083.84 325.78L1127.14 350.78L1127.14 400.78L1083.84 425.78L1040.54 400.78L1040.54 350.78zM1040.54 400.78L1083.84 425.78L1083.84 475.78L1040.54 500.78L997.24 475.78L997.24 425.78zM1170.45 325.78L1213.75 350.78L1213.75 400.78L1170.45 425.78L1127.14 400.78L1127.14 350.78zM1170.45 475.78L1213.75 500.78L1213.75 550.78L1170.45 575.78L1127.14 550.78L1127.14 500.78zM1300.36 -49.22L1343.66 -24.22L1343.66 25.78L1300.36 50.78L1257.05 25.78L1257.05 -24.22zM1343.66 25.78L1386.96 50.78L1386.96 100.78L1343.66 125.78L1300.36 100.78L1300.36 50.78zM1386.96 -49.22L1430.26 -24.22L1430.26 25.78L1386.96 50.78L1343.66 25.78L1343.66 -24.22zM1430.26 175.78L1473.57 200.78L1473.57 250.78L1430.26 275.78L1386.96 250.78L1386.96 200.78zM1430.26 475.78L1473.57 500.78L1473.57 550.78L1430.26 575.78L1386.96 550.78L1386.96 500.78z" stroke="rgba(120, 82, 209, 1)" stroke-width="2"></path></g><defs><mask id="SvgjsMask1005"><rect width="1440" height="560" fill="#ffffff"></rect></mask></defs></svg>